<?xml version="1.0" encoding="UTF-8" standalone="no"?><!DOCTYPE svg PUBLIC "-//W3C//DTD SVG 1.1//EN" "http://www.w3.org/Graphics/SVG/1.1/DTD/svg11.dtd"><svg width="100%" height="100%" viewBox="0 0 512 512" version="1.1" xmlns="http://www.w3.org/2000/svg" xmlns:xlink="http://www.w3.org/1999/xlink" xml:space="preserve" xmlns:serif="http://www.serif.com/" style="fill-rule:evenodd;clip-rule:evenodd;stroke-linejoin:round;stroke-miterlimit:2;"><g><path d="M227.147,460.288c-0.007,-0.053 -0.013,-0.105 -0.025,-0.158l-39.134,-248.634l39.159,248.792Zm-42.104,-267.51l-9.049,-57.505c-1.698,-10.781 6.636,-20.529 17.552,-20.529l214.028,0c1.899,0 3.722,0.296 5.427,0.84c-1.335,-0.316 -2.732,-0.484 -4.174,-0.484l-31.407,-0c-0.332,5.632 -0.714,11.4 -1.146,17.309c-0.502,-0.072 -1.016,-0.108 -1.536,-0.108c-5.959,0 -10.79,4.831 -10.79,10.791c-0,5.883 4.706,10.667 10.558,10.79c-0.802,8.8 -1.717,17.823 -2.769,26.993c-6.097,1.915 -12.759,3.703 -20.748,4.529c-6.831,0.706 -12.934,1.022 -18.43,1.022c-39.515,0.001 -47.868,-16.337 -72.595,-21.816c-5.59,-1.237 -10.929,-1.803 -16.024,-1.803c-25.911,0 -45.493,14.64 -58.897,29.971Z" style="fill:#00aadb;fill-rule:nonzero;"/><path d="M262.708,132.923c0,5.99 -4.856,10.846 -10.847,10.846c-5.99,-0 -10.847,-4.856 -10.847,-10.846c0,-5.989 4.857,-10.845 10.847,-10.845c5.991,0 10.847,4.856 10.847,10.845Z" style="fill:#ff9a00;fill-rule:nonzero;"/><path d="M385.529,143.092c-0,5.96 -4.831,10.792 -10.791,10.792c-5.959,0 -10.79,-4.832 -10.79,-10.792c-0,-5.96 4.831,-10.791 10.79,-10.791c5.96,0 10.791,4.831 10.791,10.791Z" style="fill:#ff9a00;fill-rule:nonzero;"/><path d="M341.671,160.195c-0,8.819 -7.15,15.967 -15.973,15.967c-8.817,0 -15.967,-7.148 -15.967,-15.967c0,-8.82 7.15,-15.969 15.967,-15.969c8.823,-0 15.973,7.149 15.973,15.969Z" style="fill:#ff9a00;fill-rule:nonzero;"/><path d="M350.989,185.404c-55.934,5.78 -62.858,-14.552 -91.025,-20.794c-34.002,-7.532 -58.885,9.824 -74.921,28.168l42.386,269.273c1.641,10.463 10.659,18.171 21.249,18.171l103.758,-0c10.59,-0 19.608,-7.708 21.256,-18.171l44.836,-284.872c-27.798,-9.348 -39.585,5.336 -67.539,8.225Z" style="fill:#ff9a00;fill-rule:nonzero;"/><path d="M242.806,444.973c-3.34,0 -6.272,-2.433 -6.799,-5.835c-0.589,-3.796 -1.178,-7.589 -1.773,-11.383c-0.589,-3.757 1.98,-7.28 5.734,-7.87c3.759,-0.588 7.281,1.978 7.87,5.736c0.602,3.804 1.191,7.609 1.78,11.414c0.583,3.758 -1.999,7.276 -5.753,7.857c-0.357,0.055 -0.714,0.081 -1.059,0.081Z" style="fill:#fff;fill-rule:nonzero;"/><path d="M237.774,413.085c-3.377,0 -6.329,-2.487 -6.811,-5.929c-1.579,-11.272 -3.522,-22.066 -5.577,-33.494c-1.774,-9.855 -3.603,-20.046 -5.176,-30.529l-3.321,-23.23c-1.46,-9.16 -2.92,-18.193 -4.368,-27.15c-4.656,-28.811 -9.055,-56.022 -13.021,-84.586c-0.521,-3.766 2.105,-7.244 5.871,-7.767c3.766,-0.524 7.25,2.107 7.77,5.874c3.942,28.411 8.328,55.549 12.978,84.28c1.454,8.986 2.914,18.046 4.38,27.236l0.019,0.11l3.321,23.238c1.535,10.238 3.346,20.329 5.101,30.088c1.986,11.052 4.042,22.481 5.665,34.015c0.526,3.766 -2.099,7.247 -5.866,7.777c-0.319,0.045 -0.645,0.067 -0.965,0.067Z" style="fill:#fff;fill-rule:nonzero;"/><path d="M202.131,187.74c-3.327,-0 -6.253,-2.417 -6.792,-5.808l-6.367,-40.119c-0.602,-3.756 1.961,-7.284 5.721,-7.881c3.754,-0.603 7.282,1.965 7.877,5.721l6.367,40.121c0.601,3.756 -1.962,7.284 -5.722,7.88c-0.363,0.058 -0.727,0.086 -1.084,0.086Z" style="fill:#fff;fill-rule:nonzero;"/><path d="M312.231,16.162c0,3.687 -2.989,6.675 -6.673,6.675c-3.691,0 -6.68,-2.988 -6.68,-6.675c-0,-3.687 2.989,-6.676 6.68,-6.676c3.684,0 6.673,2.989 6.673,6.676Z" style="fill:#ff9a00;fill-rule:nonzero;"/><path d="M292.812,59.522c-0,9.77 -7.921,17.689 -17.69,17.689c-9.769,0 -17.69,-7.919 -17.69,-17.689c-0,-9.769 7.921,-17.688 17.69,-17.688c9.769,-0 17.69,7.919 17.69,17.688Z" style="fill:#ff9a00;fill-rule:nonzero;"/><path d="M326.356,64.365c-0,-5.889 4.775,-10.664 10.659,-10.664c5.89,0 10.665,4.775 10.665,10.664c0,5.89 -4.775,10.664 -10.665,10.664c-5.884,0 -10.659,-4.774 -10.659,-10.664Z" style="fill:#ff9a00;fill-rule:nonzero;"/><path d="M325.698,453.719c-0,5.563 -4.506,10.073 -10.07,10.073c-5.565,-0 -10.07,-4.51 -10.07,-10.073c-0,-5.563 4.505,-10.073 10.07,-10.073c5.564,0 10.07,4.51 10.07,10.073Z" style="fill:#f2842a;fill-rule:nonzero;"/><path d="M338.519,298.58c-0,4.808 -3.898,8.704 -8.704,8.704c-4.813,0 -8.711,-3.896 -8.711,-8.704c0,-4.808 3.898,-8.706 8.711,-8.706c4.806,0 8.704,3.898 8.704,8.706Z" style="fill:#f2842a;fill-rule:nonzero;"/><path d="M336.633,232.758c-0,7.667 -6.217,13.882 -13.88,13.882c-7.67,-0 -13.887,-6.215 -13.887,-13.882c0,-7.667 6.217,-13.883 13.887,-13.883c7.663,0 13.88,6.216 13.88,13.883Z" style="fill:#f2842a;fill-rule:nonzero;"/><path d="M273.067,202.761c-0,11.968 -9.701,21.671 -21.67,21.671c-11.968,-0 -21.669,-9.703 -21.669,-21.671c0,-11.968 9.701,-21.67 21.669,-21.67c11.969,-0 21.67,9.702 21.67,21.67Z" style="fill:#f2842a;fill-rule:nonzero;"/><path d="M282.873,271.826c0,6.956 -5.639,12.594 -12.595,12.594c-6.956,-0 -12.595,-5.638 -12.595,-12.594c-0,-6.954 5.639,-12.593 12.595,-12.593c6.956,0 12.595,5.639 12.595,12.593Z" style="fill:#f2842a;fill-rule:nonzero;"/><path d="M302.725,379.846c0,10.964 -8.892,19.853 -19.852,19.853c-10.966,0 -19.858,-8.889 -19.858,-19.853c0,-10.964 8.892,-19.852 19.858,-19.852c10.96,0 19.852,8.888 19.852,19.852Z" style="fill:#f2842a;fill-rule:nonzero;"/><path d="M404.04,224.388c-0,8.612 -6.981,15.594 -15.591,15.594c-8.616,-0 -15.597,-6.982 -15.597,-15.594c0,-8.612 6.981,-15.593 15.597,-15.593c8.61,-0 15.591,6.981 15.591,15.593Z" style="fill:#f2842a;fill-rule:nonzero;"/><path d="M360.858,411.586c0,8.573 -6.949,15.524 -15.521,15.524c-8.573,-0 -15.522,-6.951 -15.522,-15.524c-0,-8.574 6.949,-15.524 15.522,-15.524c8.572,-0 15.521,6.95 15.521,15.524Z" style="fill:#f2842a;fill-rule:nonzero;"/><g><clipPath id="_clip1"><path d="M190.526,462.873c-60.395,9.436 -117.005,-31.875 -126.436,-92.27c-9.437,-60.396 31.87,-117.006 92.266,-126.443l34.17,218.713Z"/></clipPath><g clip-path="url(#_clip1)"><path d="M282.798,336.431c9.437,60.396 -31.871,117.006 -92.272,126.442c-60.395,9.436 -117.005,-31.875 -126.436,-92.27c-9.437,-60.396 31.87,-117.006 92.266,-126.443c60.395,-9.436 117.005,31.875 126.442,92.271Z" style="fill:#f2842a;fill-rule:nonzero;"/><path d="M168.951,441.572c-0.194,0 -0.389,-0.005 -0.583,-0.016c-11.367,-0.641 -22.283,-3.454 -32.278,-8.079c-5.802,-2.687 -7.638,-10.059 -3.854,-15.216l31.238,-42.556c0.834,-1.142 2.049,-1.666 3.252,-1.666c1.874,0 3.71,1.268 4.048,3.447l8.178,52.341c0.971,6.191 -3.829,11.745 -10.001,11.745Zm0.821,-25.071l-0.019,0c-1.849,0.06 -3.114,7.205 -3.058,9.05c0.056,1.81 1.542,3.237 3.34,3.237c0.038,0 0.075,-0 0.113,-0.002c1.842,-0.059 3.29,-1.604 3.233,-3.449c-0.062,-1.839 -1.767,-8.836 -3.609,-8.836Zm-5.515,-23.285c-2.75,0 -7.626,8.94 -8.396,11.497c-0.809,2.664 0.701,5.477 3.365,6.283c0.488,0.147 0.977,0.216 1.46,0.216c2.161,0 4.167,-1.404 4.825,-3.582c0.802,-2.664 1.742,-13.56 -0.921,-14.366c-0.107,-0.032 -0.22,-0.048 -0.333,-0.048Zm-48.576,23.347c-2.676,-0 -5.364,-1.05 -7.37,-3.201c-7.525,-8.073 -13.591,-17.599 -17.69,-28.214c-2.331,-6.034 1.542,-12.677 7.934,-13.675l53.577,-8.371c0.207,-0.032 0.414,-0.048 0.614,-0.048c2.97,0 4.85,3.45 2.995,5.981l-31.833,43.365c-2.017,2.749 -5.119,4.163 -8.227,4.163Zm-3.748,-37.553c-3.02,-0 -6.373,0.463 -7.651,0.868c-2.45,0.773 -3.804,3.383 -3.033,5.83c0.627,1.981 2.457,3.247 4.43,3.247c0.464,-0 0.934,-0.07 1.398,-0.217c2.45,-0.774 11.229,-5.73 10.452,-8.176c-0.363,-1.167 -2.838,-1.552 -5.596,-1.552Zm24.502,-2.478c-2.262,-0 -7.382,3.896 -8.566,5.249c-1.348,1.538 -1.191,3.877 0.344,5.225c0.702,0.615 1.573,0.918 2.438,0.918c1.034,-0 2.055,-0.428 2.789,-1.264c1.347,-1.538 5.282,-8.545 3.741,-9.893c-0.182,-0.162 -0.439,-0.235 -0.746,-0.235Zm-41.534,-14.915c-5.621,-0 -10.302,-4.672 -10.145,-10.503c0.332,-12.327 3.265,-24.194 8.334,-34.972c1.761,-3.733 5.44,-5.831 9.212,-5.831c2.062,0 4.142,0.623 5.959,1.942l46.39,33.655c2.713,1.968 1.686,6.233 -1.623,6.752l-56.535,8.832c-0.533,0.084 -1.065,0.125 -1.592,0.125Zm0.132,-19.555c-2.444,-0 -4.493,1.911 -4.631,4.384c-0.15,2.562 1.811,4.755 4.374,4.901c0.113,0.006 0.238,0.009 0.376,0.009c3.039,0 12.157,-1.498 12.295,-3.947c0.144,-2.562 -9.588,-5.195 -12.151,-5.34c-0.088,-0.005 -0.175,-0.007 -0.263,-0.007Zm8.497,-24.023c-1.09,0 -2.162,0.475 -2.895,1.387c-1.278,1.596 -1.021,3.926 0.577,5.205c1.316,1.056 6.423,3.706 8.892,3.706c0.526,0 0.927,-0.119 1.153,-0.398c1.278,-1.596 -3.823,-7.808 -5.415,-9.086c-0.683,-0.548 -1.504,-0.814 -2.312,-0.814Zm58.371,20.021c-0.451,-0 -0.921,-0.139 -1.347,-0.448l-46.152,-33.482c-5.176,-3.756 -5.677,-11.337 -0.965,-15.667c8.103,-7.452 17.646,-13.462 28.268,-17.538c1.203,-0.461 2.425,-0.676 3.622,-0.676c4.825,-0 9.243,3.5 10.038,8.615l8.836,56.517c0.232,1.513 -0.977,2.679 -2.3,2.679Zm-30.742,-40.572c-1.11,0 -2.225,0.395 -3.115,1.198c-1.905,1.72 -2.055,4.657 -0.338,6.561c1.51,1.668 7.952,6.422 10.809,6.422c0.401,0 0.733,-0.095 0.972,-0.309c1.904,-1.719 -3.159,-10.435 -4.882,-12.339c-0.915,-1.016 -2.181,-1.533 -3.446,-1.533Zm4.336,-17.608c-0.583,0 -1.166,0.136 -1.717,0.424c-1.811,0.949 -2.513,3.187 -1.56,4.998c0.883,1.684 5.364,7.157 7.444,7.157c0.163,0 0.307,-0.031 0.432,-0.098c1.811,-0.949 -0.369,-8.684 -1.316,-10.495c-0.664,-1.263 -1.948,-1.986 -3.283,-1.986Z" style="fill:url(#_Radial2);"/><path d="M238.877,394.437l-43.538,-31.588c-2.714,-1.968 -1.686,-6.234 1.623,-6.751l53.577,-8.371c6.392,-0.999 12.107,4.147 11.731,10.603c-0.665,11.358 -3.535,22.281 -8.247,32.267c-2.707,5.743 -10.007,7.569 -15.146,3.84Zm-140.322,-22.964l53.577,-8.371c3.309,-0.517 5.59,3.232 3.609,5.933l-31.833,43.365c-3.753,5.119 -11.26,5.607 -15.597,0.962c-7.525,-8.073 -13.591,-17.599 -17.69,-28.214c-2.331,-6.034 1.542,-12.677 7.934,-13.675Zm9.706,-59.22l46.39,33.655c2.713,1.968 1.686,6.233 -1.623,6.752l-56.535,8.832c-6.298,0.984 -11.906,-4.004 -11.737,-10.378c0.332,-12.327 3.265,-24.194 8.334,-34.972c2.714,-5.765 10.014,-7.631 15.171,-3.889Zm81.325,58.998l43.15,31.306c5.195,3.771 5.653,11.368 0.921,15.711c-8.823,8.106 -19.356,14.501 -31.131,18.551c-6.016,2.069 -12.445,-1.739 -13.429,-8.024l-8.165,-52.251c-0.752,-4.827 4.7,-8.162 8.654,-5.293Zm-21.218,70.305c-11.367,-0.641 -22.283,-3.454 -32.278,-8.079c-5.802,-2.687 -7.638,-10.059 -3.854,-15.216l31.238,-42.556c2.143,-2.919 6.743,-1.797 7.3,1.781l8.178,52.341c1.003,6.385 -4.136,12.092 -10.584,11.729Zm-7.814,-103.944l-46.152,-33.482c-5.176,-3.756 -5.677,-11.337 -0.965,-15.667c8.103,-7.452 17.646,-13.462 28.268,-17.538c6.034,-2.314 12.664,1.555 13.66,7.939l8.836,56.517c0.313,2.034 -1.98,3.439 -3.647,2.231Zm15.127,-72.596c12.451,0.266 24.433,3.144 35.311,8.17c5.828,2.694 7.714,10.068 3.91,15.244l-34.402,46.875c-1.836,2.496 -5.771,1.538 -6.248,-1.523l-8.91,-57.029c-0.984,-6.284 3.979,-11.873 10.339,-11.737Zm73.774,72.577l-56.529,8.832c-3.309,0.518 -5.59,-3.231 -3.609,-5.933l33.913,-46.201c3.772,-5.137 11.292,-5.587 15.635,-0.924c8.121,8.717 14.531,19.123 18.605,30.762c2.105,6.019 -1.711,12.479 -8.015,13.464Zm-17.446,-63.91c-21.343,-15.483 -47.499,-21.758 -73.648,-17.673c-26.15,4.087 -49.141,18.041 -64.744,39.295c-15.603,21.261 -21.958,47.303 -17.891,73.328c4.061,26.024 18.06,48.885 39.409,64.373c21.337,15.482 47.493,21.758 73.643,17.673c26.149,-4.086 49.141,-18.041 64.744,-39.295c15.603,-21.261 21.963,-47.303 17.896,-73.327c-4.066,-26.025 -18.065,-48.886 -39.409,-64.374Z" style="fill:#fff;fill-rule:nonzero;"/></g></g><path d="M105.679,388.955c-1.973,-0 -3.803,-1.266 -4.43,-3.247c-0.771,-2.447 0.583,-5.057 3.033,-5.83c1.278,-0.405 4.631,-0.868 7.651,-0.868c2.758,-0 5.233,0.385 5.596,1.552c0.777,2.446 -8.002,7.402 -10.452,8.176c-0.464,0.147 -0.934,0.217 -1.398,0.217Z" style="fill:url(#_Radial3);"/><path d="M121.916,396.58c1.616,1.837 -4.136,9.541 -5.972,11.158c-1.836,1.616 -4.637,1.438 -6.254,-0.399c-1.617,-1.837 -1.435,-4.637 0.401,-6.253c1.836,-1.617 10.208,-6.343 11.825,-4.506Z" style="fill:#f2842a;fill-rule:nonzero;"/><path d="M147.977,415.619c2.024,1.375 -1.623,10.271 -2.995,12.295c-1.378,2.024 -4.129,2.55 -6.153,1.174c-2.024,-1.374 -2.551,-4.13 -1.179,-6.154c1.379,-2.024 8.303,-8.69 10.327,-7.315Z" style="fill:#f2842a;fill-rule:nonzero;"/><path d="M170.035,428.788c-1.798,0 -3.284,-1.427 -3.34,-3.237c-0.056,-1.845 1.209,-8.99 3.058,-9.05l0.019,0c1.842,0 3.547,6.997 3.609,8.836c0.057,1.845 -1.391,3.39 -3.233,3.449c-0.038,0.002 -0.075,0.002 -0.113,0.002Z" style="fill:url(#_Radial4);"/><path d="M130.651,387.924c-0.865,-0 -1.736,-0.303 -2.438,-0.918c-1.535,-1.348 -1.692,-3.687 -0.344,-5.225c1.184,-1.353 6.304,-5.249 8.566,-5.249c0.307,-0 0.564,0.073 0.746,0.235c1.541,1.348 -2.394,8.355 -3.741,9.893c-0.734,0.836 -1.755,1.264 -2.789,1.264Z" style="fill:url(#_Radial5);"/><path d="M160.686,411.212c-0.483,0 -0.972,-0.069 -1.46,-0.216c-2.664,-0.806 -4.174,-3.619 -3.365,-6.283c0.77,-2.557 5.646,-11.497 8.396,-11.497c0.113,0 0.226,0.016 0.333,0.048c2.663,0.806 1.723,11.702 0.921,14.366c-0.658,2.178 -2.664,3.582 -4.825,3.582Z" style="fill:url(#_Radial6);"/><path d="M95.152,351.356c-0.138,0 -0.263,-0.003 -0.376,-0.009c-2.563,-0.146 -4.524,-2.339 -4.374,-4.901c0.138,-2.473 2.187,-4.384 4.631,-4.384c0.088,-0 0.175,0.002 0.263,0.007c2.563,0.145 12.295,2.778 12.151,5.34c-0.138,2.449 -9.256,3.947 -12.295,3.947Z" style="fill:url(#_Radial7);"/><path d="M110.104,328.337c-2.469,0 -7.576,-2.65 -8.892,-3.706c-1.598,-1.279 -1.855,-3.609 -0.577,-5.205c0.733,-0.912 1.805,-1.387 2.895,-1.387c0.808,0 1.629,0.266 2.312,0.814c1.592,1.278 6.693,7.49 5.415,9.086c-0.226,0.279 -0.627,0.398 -1.153,0.398Z" style="fill:url(#_Radial8);"/><path d="M135.877,345.638c-0.927,1.824 -8.685,-0.259 -10.509,-1.185c-1.823,-0.927 -2.55,-3.155 -1.623,-4.978c0.922,-1.824 3.152,-2.552 4.976,-1.625c1.823,0.926 8.084,5.965 7.156,7.788Z" style="fill:#f2842a;fill-rule:nonzero;"/><path d="M138.515,311.669c-2.857,0 -9.299,-4.754 -10.809,-6.422c-1.717,-1.904 -1.567,-4.841 0.338,-6.561c0.89,-0.803 2.005,-1.198 3.115,-1.198c1.265,0 2.531,0.517 3.446,1.533c1.723,1.904 6.786,10.62 4.882,12.339c-0.239,0.214 -0.571,0.309 -0.972,0.309Z" style="fill:url(#_Radial9);"/><path d="M149.206,291.512c-1.561,0.44 -4.518,-5.204 -4.957,-6.765c-0.439,-1.561 0.47,-3.182 2.03,-3.623c1.561,-0.439 3.184,0.47 3.622,2.031c0.445,1.561 0.865,7.918 -0.695,8.357Z" style="fill:#f2842a;fill-rule:nonzero;"/><path d="M139.662,292.459c-2.08,0 -6.561,-5.473 -7.444,-7.157c-0.953,-1.811 -0.251,-4.049 1.56,-4.998c0.551,-0.288 1.134,-0.424 1.717,-0.424c1.335,0 2.619,0.723 3.283,1.986c0.947,1.811 3.127,9.546 1.316,10.495c-0.125,0.067 -0.269,0.098 -0.432,0.098Z" style="fill:url(#_Radial10);"/><path d="M351.747,480.557l-99.861,0c-0.608,0 -1.209,-0.018 -1.804,-0.062c0.119,-0.091 0.244,-0.183 0.363,-0.273l101.991,-0c10.59,-0 19.608,-7.708 21.256,-18.171l8.315,-52.836l43.119,-273.942c1.397,-8.904 -4.042,-17.104 -12.125,-19.689c8.766,2.083 14.851,10.592 13.378,19.95l-51.127,324.763c-1.823,11.569 -11.793,20.26 -23.505,20.26Z" style="fill:#009ad2;fill-rule:nonzero;"/><path d="M382.007,409.215l36.521,-232.036c-6.561,-2.205 -12.232,-3.074 -17.427,-3.074c-10.54,0 -19.156,3.563 -29.364,6.77c1.052,-9.17 1.967,-18.193 2.769,-26.993c0.076,0.001 0.157,0.002 0.232,0.002c5.96,0 10.791,-4.832 10.791,-10.792c-0,-5.44 -4.023,-9.939 -9.255,-10.683c0.432,-5.909 0.814,-11.677 1.146,-17.309l31.407,-0c1.442,-0 2.839,0.168 4.174,0.484c8.083,2.585 13.522,10.785 12.125,19.689l-43.119,273.942Z" style="fill:#00c5e7;fill-rule:nonzero;"/><path d="M374.738,153.884c-0.075,0 -0.156,-0.001 -0.232,-0.002c0.665,-7.314 1.254,-14.487 1.768,-21.473c5.232,0.744 9.255,5.243 9.255,10.683c-0,5.96 -4.831,10.792 -10.791,10.792Z" style="fill:#ffba00;fill-rule:nonzero;"/><path d="M352.436,480.222l-101.991,-0c77.314,-58.11 108.759,-189.909 121.292,-299.347c10.208,-3.207 18.824,-6.77 29.364,-6.77c5.195,0 10.866,0.869 17.427,3.074l-36.521,232.036l-8.315,52.836c-1.648,10.463 -10.666,18.171 -21.256,18.171Zm-36.808,-36.576c-5.565,0 -10.07,4.51 -10.07,10.073c-0,5.563 4.505,10.073 10.07,10.073c5.564,-0 10.07,-4.51 10.07,-10.073c-0,-5.563 -4.506,-10.073 -10.07,-10.073Zm29.709,-47.584c-8.573,-0 -15.522,6.95 -15.522,15.524c-0,8.573 6.949,15.524 15.522,15.524c8.572,-0 15.521,-6.951 15.521,-15.524c0,-8.574 -6.949,-15.524 -15.521,-15.524Zm43.112,-187.267c-8.616,-0 -15.597,6.981 -15.597,15.593c0,8.612 6.981,15.594 15.597,15.594c8.61,-0 15.591,-6.982 15.591,-15.594c-0,-8.612 -6.981,-15.593 -15.591,-15.593Z" style="fill:#ffba00;fill-rule:nonzero;"/><path d="M315.628,463.792c-5.565,-0 -10.07,-4.51 -10.07,-10.073c-0,-5.563 4.505,-10.073 10.07,-10.073c5.564,0 10.07,4.51 10.07,10.073c-0,5.563 -4.506,10.073 -10.07,10.073Z" style="fill:#f6a956;fill-rule:nonzero;"/><path d="M388.449,239.982c-8.616,-0 -15.597,-6.982 -15.597,-15.594c0,-8.612 6.981,-15.593 15.597,-15.593c8.61,-0 15.591,6.981 15.591,15.593c-0,8.612 -6.981,15.594 -15.591,15.594Z" style="fill:#f6a956;fill-rule:nonzero;"/><path d="M345.337,427.11c-8.573,-0 -15.522,-6.951 -15.522,-15.524c-0,-8.574 6.949,-15.524 15.522,-15.524c8.572,-0 15.521,6.95 15.521,15.524c0,8.573 -6.949,15.524 -15.521,15.524Z" style="fill:#f6a956;fill-rule:nonzero;"/></g><defs><radialGradient id="_Radial2" cx="0" cy="0" r="1" gradientUnits="userSpaceOnUse" gradientTransform="matrix(92.484,-14.453,14.453,92.484,173.444,353.517)"><stop offset="0" style="stop-color:#ffdf87;stop-opacity:1"/><stop offset="0.1" style="stop-color:#ffdf87;stop-opacity:1"/><stop offset="0.6" style="stop-color:#ff9c00;stop-opacity:1"/><stop offset="1" style="stop-color:#ff9c00;stop-opacity:1"/></radialGradient><radialGradient id="_Radial3" cx="0" cy="0" r="1" gradientUnits="userSpaceOnUse" gradientTransform="matrix(92.484,-14.453,14.453,92.484,173.444,353.517)"><stop offset="0" style="stop-color:#ffebb1;stop-opacity:1"/><stop offset="0.1" style="stop-color:#ffebb1;stop-opacity:1"/><stop offset="0.4" style="stop-color:#ffd26b;stop-opacity:1"/><stop offset="0.5" style="stop-color:#ffc842;stop-opacity:1"/><stop offset="0.6" style="stop-color:#ffbf00;stop-opacity:1"/><stop offset="1" style="stop-color:#ffbf00;stop-opacity:1"/></radialGradient><radialGradient id="_Radial4" cx="0" cy="0" r="1" gradientUnits="userSpaceOnUse" gradientTransform="matrix(92.484,-14.453,14.453,92.484,173.444,353.517)"><stop offset="0" style="stop-color:#ffebb1;stop-opacity:1"/><stop offset="0.1" style="stop-color:#ffebb1;stop-opacity:1"/><stop offset="0.4" style="stop-color:#ffd26b;stop-opacity:1"/><stop offset="0.5" style="stop-color:#ffc842;stop-opacity:1"/><stop offset="0.6" style="stop-color:#ffbf00;stop-opacity:1"/><stop offset="1" style="stop-color:#ffbf00;stop-opacity:1"/></radialGradient><radialGradient id="_Radial5" cx="0" cy="0" r="1" gradientUnits="userSpaceOnUse" gradientTransform="matrix(92.484,-14.453,14.453,92.484,173.444,353.517)"><stop offset="0" style="stop-color:#ffecb5;stop-opacity:1"/><stop offset="0.1" style="stop-color:#ffecb5;stop-opacity:1"/><stop offset="0.4" style="stop-color:#ffd570;stop-opacity:1"/><stop offset="0.5" style="stop-color:#ffcb46;stop-opacity:1"/><stop offset="0.6" style="stop-color:#ffc300;stop-opacity:1"/><stop offset="1" style="stop-color:#ffc300;stop-opacity:1"/></radialGradient><radialGradient id="_Radial6" cx="0" cy="0" r="1" gradientUnits="userSpaceOnUse" gradientTransform="matrix(92.484,-14.453,14.453,92.484,173.444,353.517)"><stop offset="0" style="stop-color:#ffebb1;stop-opacity:1"/><stop offset="0.1" style="stop-color:#ffebb1;stop-opacity:1"/><stop offset="0.4" style="stop-color:#ffd26b;stop-opacity:1"/><stop offset="0.5" style="stop-color:#ffc842;stop-opacity:1"/><stop offset="0.6" style="stop-color:#ffbf00;stop-opacity:1"/><stop offset="1" style="stop-color:#ffbf00;stop-opacity:1"/></radialGradient><radialGradient id="_Radial7" cx="0" cy="0" r="1" gradientUnits="userSpaceOnUse" gradientTransform="matrix(92.484,-14.453,14.453,92.484,173.444,353.517)"><stop offset="0" style="stop-color:#ffebb1;stop-opacity:1"/><stop offset="0.1" style="stop-color:#ffebb1;stop-opacity:1"/><stop offset="0.4" style="stop-color:#ffd26b;stop-opacity:1"/><stop offset="0.5" style="stop-color:#ffc842;stop-opacity:1"/><stop offset="0.6" style="stop-color:#ffbf00;stop-opacity:1"/><stop offset="1" style="stop-color:#ffbf00;stop-opacity:1"/></radialGradient><radialGradient id="_Radial8" cx="0" cy="0" r="1" gradientUnits="userSpaceOnUse" gradientTransform="matrix(92.484,-14.453,14.453,92.484,173.444,353.517)"><stop offset="0" style="stop-color:#ffebb1;stop-opacity:1"/><stop offset="0.1" style="stop-color:#ffebb1;stop-opacity:1"/><stop offset="0.4" style="stop-color:#ffd26b;stop-opacity:1"/><stop offset="0.5" style="stop-color:#ffc842;stop-opacity:1"/><stop offset="0.6" style="stop-color:#ffbf00;stop-opacity:1"/><stop offset="1" style="stop-color:#ffbf00;stop-opacity:1"/></radialGradient><radialGradient id="_Radial9" cx="0" cy="0" r="1" gradientUnits="userSpaceOnUse" gradientTransform="matrix(92.484,-14.453,14.453,92.484,173.444,353.517)"><stop offset="0" style="stop-color:#ffebb1;stop-opacity:1"/><stop offset="0.1" style="stop-color:#ffebb1;stop-opacity:1"/><stop offset="0.4" style="stop-color:#ffd26b;stop-opacity:1"/><stop offset="0.5" style="stop-color:#ffc842;stop-opacity:1"/><stop offset="0.6" style="stop-color:#ffbf00;stop-opacity:1"/><stop offset="1" style="stop-color:#ffbf00;stop-opacity:1"/></radialGradient><radialGradient id="_Radial10" cx="0" cy="0" r="1" gradientUnits="userSpaceOnUse" gradientTransform="matrix(92.484,-14.453,14.453,92.484,173.444,353.517)"><stop offset="0" style="stop-color:#ffebb1;stop-opacity:1"/><stop offset="0.1" style="stop-color:#ffebb1;stop-opacity:1"/><stop offset="0.4" style="stop-color:#ffd26b;stop-opacity:1"/><stop offset="0.5" style="stop-color:#ffc842;stop-opacity:1"/><stop offset="0.6" style="stop-color:#ffbf00;stop-opacity:1"/><stop offset="1" style="stop-color:#ffbf00;stop-opacity:1"/></radialGradient></defs></svg>